HIERARCHY
ROOT Hips
{
	OFFSET 0.00000 0.00000 0.00000
	CHANNELS 6 Xposition Yposition Zposition Zrotation Yrotation Xrotation 
	JOINT LHipJoint
	{
		OFFSET 0 0 0
		CHANNELS 3 Zrotation Yrotation Xrotation
		JOINT LeftHip
		{
			OFFSET 1.48831 -1.59570 0.95625
			CHANNELS 3 Zrotation Yrotation Xrotation
			JOINT LeftKnee
			{
				OFFSET 2.20856 -6.06797 0.00000
				CHANNELS 3 Zrotation Yrotation Xrotation
				JOINT LeftAnkle
				{
					OFFSET 2.62924 -7.22379 0.00000
					CHANNELS 3 Zrotation Yrotation Xrotation
					JOINT LeftToe
					{
						OFFSET 0.16802 -0.46163 2.41673
						CHANNELS 3 Zrotation Yrotation Xrotation
						End Site
						{
							OFFSET 0.00000 -0.00000 1.23760
						}
					}
				}
			}
		}
	}
	JOINT RHipJoint
	{
		OFFSET 0 0 0
		CHANNELS 3 Zrotation Yrotation Xrotation
		JOINT RightHip
		{
			OFFSET -1.56796 -1.59570 0.95625
			CHANNELS 3 Zrotation Yrotation Xrotation
			JOINT RightKnee
			{
				OFFSET -2.29239 -6.29829 0.00000
				CHANNELS 3 Zrotation Yrotation Xrotation
				JOINT RightAnkle
				{
					OFFSET -2.66963 -7.33475 0.00000
					CHANNELS 3 Zrotation Yrotation Xrotation
					JOINT RightToe
					{
						OFFSET -0.18185 -0.49964 2.34359
						CHANNELS 3 Zrotation Yrotation Xrotation
						End Site
						{
							OFFSET -0.00000 -0.00000 1.20477
						}
					}
				}
			}
		}
	}
	JOINT lowerback
	{
		OFFSET 0 0 0
		CHANNELS 3 Zrotation Yrotation Xrotation
		JOINT Chest
		{
			OFFSET 0.03505 2.15832 -0.34324
			CHANNELS 3 Zrotation Yrotation Xrotation
			JOINT Chest2
			{
				OFFSET -0.01089 2.17963 0.04689
				CHANNELS 3 Zrotation Yrotation Xrotation
				JOINT lowerneck
				{
					OFFSET 0 0 0
					CHANNELS 3 Zrotation Yrotation Xrotation
					JOINT Neck
					{
						OFFSET 0.04686 1.69404 0.22159
						CHANNELS 3 Zrotation Yrotation Xrotation
						JOINT Head
						{
							OFFSET 0.00265 1.69305 -0.01513
							CHANNELS 3 Zrotation Yrotation Xrotation
							End Site
							{
								OFFSET -0.00415 1.80215 -0.03034
							}
						}
					}
				}
				JOINT LeftCollar
				{
					OFFSET 0 0 0
					CHANNELS 3 Zrotation Yrotation Xrotation
					JOINT LeftShoulder
					{
						OFFSET 3.67184 1.11724 -0.19002
CHANNELS 3 Zrotation Xrotation Yrotation
						JOINT LeftElbow
						{
OFFSET 0 -5.177140 -0.000000
CHANNELS 3 Zrotation Xrotation Yrotation
							JOINT LeftWrist
							{
OFFSET 0 -3.436790 -0.000000
CHANNELS 3 Zrotation Xrotation Yrotation
								JOINT lhand
								{
									OFFSET 0 0 0
CHANNELS 3 Zrotation Xrotation Yrotation
									JOINT LFingers
									{
OFFSET 0 -0.573120 -0.000000
CHANNELS 3 Zrotation Xrotation Yrotation
										End Site
										{
OFFSET 0 -0.462060 -0.000000
										}
									}
								}
								JOINT LThumb
								{
OFFSET 0 0.000000 0.000000
CHANNELS 3 Zrotation Xrotation Yrotation
									End Site
									{
OFFSET 0 -0.469120 0.469120
									}
								}
							}
						}
					}
				}
				JOINT RightCollar
				{
					OFFSET 0 0 0
					CHANNELS 3 Zrotation Yrotation Xrotation
					JOINT RightShoulder
					{
						OFFSET -3.59596 0.95831 -0.26050
CHANNELS 3 Zrotation Xrotation Yrotation
						JOINT RightElbow
						{
OFFSET 0 -5.239080 -0.000000
CHANNELS 3 Zrotation Xrotation Yrotation
							JOINT RightWrist
							{
OFFSET 0 -3.464850 -0.000000
CHANNELS 3 Zrotation Xrotation Yrotation
								JOINT rhand
								{
									OFFSET 0 0 0
CHANNELS 3 Zrotation Xrotation Yrotation
									JOINT RFingers
									{
OFFSET 0 -0.608750 -0.000000
CHANNELS 3 Zrotation Xrotation Yrotation
										End Site
										{
OFFSET 0 -0.490790 -0.000000
										}
									}
								}
								JOINT RThumb
								{
OFFSET 0 0.000000 0.000000
CHANNELS 3 Zrotation Xrotation Yrotation
									End Site
									{
OFFSET 0 -0.498290 0.498290
									}
								}
							}
						}
					}
				}
			}
		}
	}
}
MOTION
Frames: 4
Frame Time: 0.008333333333333333
6.815300 16.326500 -4.370500 -48.676600 -86.097500 45.828200 0.000000 0.000000 0.000000 -17.693300 3.609800 -4.316300 1.893600 8.640800 24.678000 1.303600 -0.995200 -21.287700 0.003900 -0.405800 -1.114900 0.000000 0.000000 0.000000 27.182200 7.021500 -8.562500 -3.678000 -11.719100 34.745500 -1.829900 -1.684900 -26.223200 -0.069400 -1.699700 4.676400 3.270800 -0.683300 -0.994500 0.621200 -1.049100 2.757400 -1.233900 -0.457200 3.349100 4.092600 2.101400 -4.615100 1.089500 2.357600 7.604100 -0.258000 1.309200 3.299000 -0.000000 0.000000 0.000000 1.902100 -2.835200 -15.516800 11.616300 -19.226800 1.974100 15.522000 -16.053600 -9.555700 0.000000 0.000000 0.000000 -7.125000 0.000000 0.000000 -9.984000 39.697600 -1.320000 -0.000000 0.000000 0.000000 0.266400 -2.320900 14.158600 -13.269700 -21.681200 -2.552100 -19.716000 5.014300 5.139500 0.000000 0.000000 0.000000 7.125000 0.000000 -0.000000 5.802500 35.388800 1.375900
6.813827 16.328482 -4.384986 -49.862092 -86.051282 47.088110 0.000000 0.000000 0.000000 -17.558340 3.554723 -4.421086 1.903827 8.662873 24.746373 1.308541 -0.868257 -21.365920 0.005259 -0.468437 -1.287201 0.000000 0.000000 0.000000 27.339502 7.048727 -8.601399 -3.661941 -11.696409 34.666381 -1.824227 -1.749155 -26.208822 -0.069182 -1.696604 4.667927 3.325819 -0.675104 -0.991136 0.620905 -1.038781 2.735969 -1.264373 -0.451063 3.324732 4.230019 2.136823 -4.473426 0.980959 2.414650 7.444626 -0.317055 1.334686 3.222017 0.000000 0.000000 0.000000 1.932128 -3.108289 -15.418966 11.434518 -18.951218 1.914659 16.177527 -16.998323 -7.408611 0.000000 0.000000 0.000000 -7.125000 0.000000 0.000000 -9.054290 37.550352 -1.676733 0.000000 0.000000 0.000000 0.345728 -2.334737 13.703827 -13.184626 -21.557176 -2.520700 -19.698401 5.280138 5.141695 0.000000 0.000000 0.000000 7.125000 0.000000 0.000000 5.817363 35.390232 1.379241
6.809164 16.328400 -4.393846 -50.666436 -86.053991 47.909636 0.000000 0.000000 0.000000 -17.509590 3.535436 -4.415819 1.907591 8.670882 24.771146 1.317882 -0.745545 -21.480111 0.005800 -0.492936 -1.354573 0.000000 0.000000 0.000000 27.390546 6.967809 -8.604419 -3.650354 -11.679982 34.609054 -1.820009 -1.671754 -26.148308 -0.070000 -1.706691 4.695655 3.376147 -0.645999 -1.025027 0.597827 -1.002708 2.757009 -1.315638 -0.430518 3.366336 4.267984 2.162419 -4.384445 1.015681 2.448229 7.397411 -0.312010 1.352410 3.189519 0.000000 0.000000 0.000000 2.037939 -3.286100 -15.768739 11.596469 -19.196672 1.967593 16.253484 -17.399948 -7.373174 0.000000 0.000000 0.000000 -7.125000 0.000000 0.000000 -8.984698 37.518911 -1.670654 0.000000 0.000000 0.000000 0.436538 -2.299825 13.279157 -13.095534 -21.427024 -2.488045 -19.856982 5.271955 4.984688 0.000000 0.000000 0.000000 7.125000 0.000000 0.000000 5.670072 35.231888 1.366000
6.810109 16.328900 -4.399841 -51.291508 -86.094088 48.577563 0.000000 0.000000 0.000000 -17.497965 3.536155 -4.450991 1.906650 8.668745 24.764680 1.320223 -0.693034 -21.515110 0.005777 -0.490837 -1.348816 0.000000 0.000000 0.000000 27.399362 6.969739 -8.660206 -3.648709 -11.677664 34.600946 -1.816423 -1.662835 -26.119913 -0.068945 -1.694454 4.662026 3.422895 -0.616795 -0.978911 0.571840 -0.960890 2.725017 -1.366042 -0.409150 3.308093 4.314497 2.229479 -4.345374 0.963237 2.538412 7.471849 -0.333247 1.397292 3.211181 0.000000 0.000000 0.000000 2.109279 -3.374021 -15.981181 11.750748 -19.429799 2.018583 16.316851 -17.681037 -7.346690 0.000000 0.000000 0.000000 -7.125000 0.000000 0.000000 -8.927227 37.495745 -1.664823 0.000000 0.000000 0.000000 0.487801 -2.195715 13.038729 -13.008707 -21.299942 -2.456463 -19.825399 5.365628 4.917145 0.000000 0.000000 0.000000 7.125000 0.000000 0.000000 5.689359 35.159090 1.380818
